<svg clip-rule="evenodd" fill-rule="evenodd" height="2048" image-rendering="optimizeQuality" shape-rendering="geometricPrecision" text-rendering="geometricPrecision" viewBox="0 0 2048 2048" width="2048" xmlns="http://www.w3.org/2000/svg"><g fill-rule="nonzero"><path d="m1024 255.998c152.153 0 289.904 61.6749 389.615 161.386 99.7111 99.7099 161.386 237.462 161.386 389.614s-61.6749 289.904-161.386 389.615c-99.7111 99.7111-237.462 161.386-389.615 161.386-152.152 0-289.903-61.6749-389.614-161.386-99.7111-99.7111-161.386-237.463-161.386-389.615s61.6749-289.904 161.386-389.614c99.7111-99.7111 237.462-161.386 389.614-161.386zm355.677 195.324c-91.0229-91.0229-216.775-147.324-355.677-147.324-138.901 0-264.653 56.3008-355.676 147.324-91.0229 91.0217-147.324 216.775-147.324 355.676s56.3008 264.655 147.324 355.677c91.0229 91.0229 216.775 147.324 355.676 147.324 138.902 0 264.655-56.3008 355.677-147.324 91.0229-91.0229 147.324-216.776 147.324-355.677s-56.3008-264.655-147.324-355.676z" fill="#212121"/><path d="m693.644 1231.93c-1.81181 13.0984 7.33938 25.1882 20.4378 27 13.0984 1.81181 25.1882-7.33938 27-20.4378 5.89134-42.528 27.3721-80.3233 58.4611-107.408 30.6248-26.6799 70.5768-42.8882 114.118-42.8882h18.6024c12.9496 9.77481 26.5642 17.7449 40.7303 23.4638 16.4327 6.63308 33.4937 10.2744 51.0071 10.2744s34.5744-3.64134 51.0071-10.2756c14.1673-5.71772 27.7819-13.6866 40.7315-23.4626h18.6012c43.1552 0 82.7883 15.9295 113.308 42.202 30.9992 26.6823 52.5898 63.9756 58.9335 106.041 1.96654 13.0984 14.1827 22.1232 27.2811 20.1567 13.0984-1.96654 22.1232-14.1827 20.1567-27.2811-8.10709-53.7544-35.6032-101.332-75.0579-135.292-38.9268-33.5091-89.5099-53.8264-144.621-53.8264h-26.7095-.056693c-5.35985-.00236221-10.7539 1.77992-15.2221 5.44489l15.2221 18.5551-15.1878-18.4689c-11.2654 9.24213-23.0551 16.5945-35.1922 21.4937-10.7362 4.33465-21.8421 6.71339-33.1937 6.71339-11.3528 0-22.4587-2.37874-33.1937-6.71221-11.6126-4.6878-22.9063-11.6209-33.7288-20.3067-4.31575-4.16103-10.1847-6.7193-16.6524-6.7193h-26.765c-55.5792 0-106.558 20.6729-145.618 54.7016-39.5315 34.441-66.8646 82.6524-74.3989 137.033z" fill="#212121"/><path d="m1024 507.995c64.5615 0 123.3 15.7571 165.125 49.2012 39.0307 31.2107 62.8607 76.7493 62.8607 137.915 0 65.6965-28.7835 153.497-74.3316 219.577-39.9815 58.0063-93.4642 100.365-153.654 100.365-60.1902 0-113.673-42.3591-153.654-100.365-45.5481-66.0792-74.3316-153.88-74.3316-219.577 0-61.1658 23.8299-106.704 62.8607-137.915 41.8252-33.4441 100.564-49.2012 165.125-49.2012zm135.312 86.5146c-32.7402-26.1803-81.0012-38.5146-135.312-38.5146-54.3107 0-102.572 12.3343-135.312 38.5146-27.7382 22.1811-44.6741 55.3264-44.6741 100.602 0 57.0697 25.4445 133.977 65.7071 192.39 31.6902 45.9768 71.9221 79.552 114.279 79.552 42.3567 0 82.5886-33.5752 114.279-79.552 40.2626-58.4126 65.7071-135.32 65.7071-192.39 0-45.2752-16.9358-78.4205-44.6741-100.602z" fill="#212121"/><path d="m660.378 1372c49.6949 0 89.1485 12.7039 120.563 34.552 27.0662 18.8221 47.6717 44.2146 63.3827 73.9489h636.298c6.71575 0 12.7866 2.76024 17.1425 7.20591l91.2331 76.8048-15.3756 18.2811 15.4559-18.3603c10.1398 8.53583 11.4402 23.6764 2.90433 33.8162-1.42323 1.69016-3.03189 3.13465-4.76811 4.32874l-91.3772 75.3697.056693.068504c-4.5 3.71221-9.94961 5.50748-15.3602 5.48504h-51.1134c-6.67914 0-12.7193-2.72953-17.0705-7.13268l-10.539-10.539-10.6406 10.6406.0011811.0011811c-4.68544 4.68662-10.8284 7.02875-16.9701 7.02875v.0011811h-63.5174c-6.67914 0-12.7193-2.72953-17.0705-7.13268l-61.2591-61.2603-61.3619 61.3619.0011811.0011811c-4.68544 4.68662-10.8284 7.02875-16.9701 7.02875v.0011811h-58.1422c-6.67914 0-12.7193-2.72953-17.0705-7.13268l-24.5882-24.5882-24.691 24.6898-16.9689-16.9689 16.9701 16.9713c-4.68544 4.68662-10.8272 7.02875-16.9701 7.02875h-.0011811-55.4516c-6.67914 0-12.7193-2.72953-17.0705-7.13268l-24.5882-24.5882-24.691 24.6898-16.9689-16.9689 16.9701 16.9713c-4.68662 4.68662-10.8272 7.02875-16.9701 7.02875h-.0011811-29.4662c-15.711 29.7343-36.3166 55.1268-63.3827 73.9489-31.415 21.8469-70.8686 34.5508-120.563 34.5508-52.402 0-106.934-25.0453-147.077-65.1886-37.5213-37.5213-62.9233-88.4564-62.9233-144.812 0-56.354 25.402-107.29 62.9233-144.812 40.1445-40.1433 94.6749-65.1886 147.077-65.1886zm93.1879 73.9276c-23.5725-16.3937-53.9918-25.9276-93.1879-25.9276-39.6839 0-81.6544 19.6429-113.139 51.1264-29.1355 29.1355-48.8611 68.1981-48.8611 110.874 0 42.6768 19.7256 81.7383 48.8611 110.874 31.4835 31.4835 73.4552 51.1264 113.139 51.1264 39.1961 0 69.6142-9.53268 93.1879-25.9264 23.2488-16.1681 40.4929-39.2906 53.3599-66.7312 3.33898-9.23859 12.1866-15.8421 22.5768-15.8421h34.3512l34.5414-34.5402.0862205-.0885827c9.37205-9.37205 24.5681-9.37205 33.9402 0l-.0011811.0011811 34.6276 34.6276h35.5772l34.5414-34.5402.0862205-.0885827c9.37205-9.37205 24.5681-9.37205 33.9402 0l-.0011811.0011811 34.6276 34.6276h38.2666l71.1686-71.1686.129921-.133465c9.37205-9.37205 24.5693-9.37087 33.9414.0011811l-.00236221.0011811 71.2985 71.2997h43.6418l20.491-20.491.0862205-.0885827c9.37205-9.37205 24.5681-9.37205 33.9402 0l-.0011811.0011811 20.5784 20.5784h32.7827l64.1493-52.9111-64.2497-54.0886h-642.127c-9.23268.152362-18.124-5.05748-22.2225-13.9878l21.8114-10.0122-21.75 9.9378c-12.9532-28.2201-30.437-51.9945-54.1867-68.5111z" fill="#66bb6a"/><path d="m620.346 1502.5c21.9496 0 41.8264 8.90079 56.2146 23.2866 14.387 14.387 23.2878 34.2638 23.2878 56.2146 0 21.9532-8.90079 41.83-23.2878 56.2146-14.387 14.387-34.2638 23.2878-56.2146 23.2878s-41.8276-8.90079-56.2146-23.2878c-14.3858-14.3882-23.2866-34.265-23.2866-56.2146 0-21.9508 8.90079-41.8276 23.2866-56.2134 14.387-14.387 34.2638-23.2878 56.2146-23.2878zm22.2768 57.2245c-5.69764-5.69764-13.5756-9.22442-22.2768-9.22442-8.70001 0-16.578 3.52677-22.2768 9.2256-5.69764 5.69764-9.22442 13.5756-9.22442 22.2756 0 8.70119 3.52559 16.578 9.22442 22.2768 5.69882 5.69882 13.5768 9.2256 22.2768 9.2256 8.70001 0 16.578-3.52677 22.2768-9.2256 5.69882-5.69882 9.2256-13.5768 9.2256-22.2768 0-8.70001-3.52677-16.578-9.2256-22.2768z" fill="#66bb6a"/></g><path d="m0 0h2048v2048h-2048z" fill="none"/></svg>